<?xml version="1.0" encoding="UTF-8" standalone="no"?>
<!-- Created with Inkscape (http://www.inkscape.org/) -->

<svg
   width="210mm"
   height="297mm"
   viewBox="0 0 210 297"
   version="1.1"
   id="svg5"
   inkscape:version="1.1.2 (0a00cf5339, 2022-02-04)"
   sodipodi:docname="drawing2.svg"
   xmlns:inkscape="http://www.inkscape.org/namespaces/inkscape"
   xmlns:sodipodi="http://sodipodi.sourceforge.net/DTD/sodipodi-0.dtd"
   xmlns="http://www.w3.org/2000/svg"
   xmlns:svg="http://www.w3.org/2000/svg">
  <sodipodi:namedview
     id="namedview7"
     pagecolor="#ffffff"
     bordercolor="#666666"
     borderopacity="1.0"
     inkscape:pageshadow="2"
     inkscape:pageopacity="0.0"
     inkscape:pagecheckerboard="0"
     inkscape:document-units="mm"
     showgrid="false"
     inkscape:zoom="0.71446409"
     inkscape:cx="396.80091"
     inkscape:cy="561.25984"
     inkscape:window-width="1920"
     inkscape:window-height="1007"
     inkscape:window-x="0"
     inkscape:window-y="0"
     inkscape:window-maximized="1"
     inkscape:current-layer="layer1" />
  <defs
     id="defs2" />
  <g
     inkscape:label="Layer 1"
     inkscape:groupmode="layer"
     id="layer1">
    <path
       id="Selection"
       fill="none"
       stroke="#000000"
       stroke-width="5.74614"
       d="m 110.41613,122.88995 c -1.45796,-1.52999 -5.56427,-6.32755 -7.38931,-6.95038 -0.94925,-0.32516 -2.58021,-0.27078 -3.623836,-0.27078 0,0 -34.612716,0 -34.612716,0 -8.56402,-0.0113 -13.095142,-3.91297 -13.110874,-11.28305 0,0 0,-35.203175 0,-35.203175 0.01556,-7.370095 4.546854,-11.269509 13.110874,-11.283051 0,0 96.496042,0 96.496042,0 0,0 57.68782,0 57.68782,0 8.56403,0.01587 13.09514,3.912956 13.11088,11.283051 0,0 0,35.203175 0,35.203175 -0.0126,7.37008 -4.54685,11.26951 -13.11088,11.28305 0,0 -70.7987,0 -70.7987,0 0,0 0,35.20311 0,35.20311 -0.0495,3.28566 -2.05581,5.65055 -6.246,4.17927 -1.95616,-0.68606 -4.7357,-4.04841 -6.13593,-5.53322 0,0 -12.47102,-13.08835 -12.47102,-13.08835 -1.45271,-1.539 -4.64125,-5.3888 -6.63412,-6.0477 -0.97019,-0.32519 -2.59069,-0.2708 -3.65008,-0.2708 0,0 -86.007326,0 -86.007326,0 -2.318,0.005 -6.24602,0.21646 -8.390956,0.88909 -7.289647,2.28366 -8.9049053,8.03807 -8.9153991,14.00451 0,0 0,80.78671 0,80.78671 0,1.18696 0.1154,2.93356 -0.6135887,3.95806 -1.2743738,1.7963 -5.3125263,1.93169 -6.8648538,0.36089 -1.0750925,-1.08765 -0.912515,-2.96967 -0.912515,-4.31915 0,0 0,-85.2999 0,-85.2999 0.021062,-10.18634 8.611225,-17.58351 20.4529646,-17.60159 0,0 88.629524,0 88.629524,0 z m 29.36835,18.05287 c 0,0 0,-27.07935 0,-27.07935 0.031,-4.8201 1.53137,-5.40685 6.81765,-5.41585 0,0 58.73668,0 58.73668,0 0,0 9.96426,0 9.96426,0 2.3023,-0.005 5.30731,0.0901 6.975,-1.54351 1.50516,-1.46681 1.41078,-3.84077 1.41598,-5.67764 0,0 0,-24.371405 0,-24.371405 0,-2.482288 0.46145,-7.871064 -1.09605,-9.829781 -1.59429,-2.008395 -4.79337,-1.900079 -7.29493,-1.90461 0,0 -119.046702,0 -119.046702,0 0,0 -23.599575,0 -23.599575,0 -2.748037,0 -8.160205,-0.36088 -10.373322,0.943296 -2.33374,1.371984 -2.207876,4.12506 -2.213116,6.277862 0,0 0,24.371405 0,24.371405 0,2.482275 -0.461521,7.871063 1.096071,9.829783 1.594282,2.0084 4.793332,1.90007 7.294887,1.9046 0,0 35.137167,0 35.137167,0 1.2429,0 3.03122,-0.0586 4.17445,0.3337 2.24988,0.77175 7.01173,6.37264 8.80528,8.2411 0,0 14.59504,15.34502 14.59504,15.34502 2.30748,2.42358 5.99427,6.71112 8.61123,8.57511 z M 81.047751,80.014331 c 0,-1.53451 -0.256993,-4.98712 0.613588,-6.214696 1.368771,-1.927159 5.795002,-1.927159 7.16378,0 0.870564,1.227576 0.613587,4.680186 0.613587,6.214696 2.318,-1.051615 5.107998,-2.68538 7.866522,-2.112186 2.894852,0.600224 3.928032,3.520309 2.459606,5.627955 -1.043625,1.498425 -3.241011,2.30175 -5.08178,2.802712 0,0 0,0.902675 0,0.902675 1.714905,0.464825 3.63958,1.159888 4.777605,2.428125 1.520871,1.69245 1.353011,4.887813 -1.164246,5.812988 -3.00501,1.105762 -6.308952,-0.7627 -8.857707,-1.922625 0,1.5345 0.256994,4.987112 -0.613587,6.21475 -1.368778,1.927095 -5.795009,1.927095 -7.16378,0 -0.870563,-1.227638 -0.613588,-4.68025 -0.613588,-6.21475 -2.54875,1.159925 -5.852695,3.028387 -8.857707,1.922625 -2.517281,-0.925175 -2.685105,-4.120538 -1.164243,-5.812988 1.138023,-1.268237 3.062698,-1.9633 4.777603,-2.428125 0,0 0,-0.902675 0,-0.902675 -2.019073,-0.555125 -4.195481,-1.475825 -5.233861,-3.177285 -1.25864,-2.076096 -0.08394,-4.693777 2.611687,-5.253382 2.758524,-0.573194 5.548521,1.060571 7.866521,2.112186 z m 37.759349,0 c 0,-1.53451 -0.25705,-4.98712 0.61383,-6.214696 1.37399,-1.936168 5.78975,-1.936168 7.16373,0 0.87059,1.227576 0.61384,4.680186 0.61384,6.214696 2.31802,-1.051615 5.10802,-2.68538 7.86657,-2.112186 2.89486,0.600224 3.92799,3.520309 2.45955,5.627955 -1.04357,1.498425 -3.241,2.30175 -5.08176,2.802712 0,0 0,0.902675 0,0.902675 1.84076,0.501075 4.03819,1.304288 5.08176,2.8027 1.46844,2.107663 0.43544,5.02775 -2.45955,5.627963 -2.75855,0.5732 -5.54855,-1.060563 -7.86657,-2.112175 0,1.5345 0.25706,4.987112 -0.61384,6.21475 -1.36876,1.927095 -5.79495,1.927095 -7.16373,0 -0.87057,-1.227638 -0.61383,-4.68025 -0.61383,-6.21475 -2.5488,1.159925 -5.85274,3.028387 -8.85775,1.922625 -2.51728,-0.925175 -2.68508,-4.120538 -1.16424,-5.812988 1.13804,-1.268237 3.06274,-1.9633 4.77762,-2.428125 0,0 0,-0.902675 0,-0.902675 -2.01907,-0.555125 -4.19551,-1.475825 -5.23387,-3.177285 -1.25865,-2.076096 -0.0836,-4.693777 2.61166,-5.253382 2.75855,-0.573194 5.54856,1.060571 7.86658,2.112186 z m 37.7593,0 c 0,-1.53451 -0.25705,-4.98712 0.61383,-6.214696 1.37399,-1.936168 5.78975,-1.936168 7.16379,0 0.87053,1.227576 0.61384,4.680186 0.61384,6.214696 2.31796,-1.051615 5.10797,-2.68538 7.86651,-2.112186 2.89486,0.600224 3.92799,3.520309 2.45961,5.627955 -1.04363,1.498425 -3.241,2.30175 -5.08176,2.802712 0,0 0,0.902675 0,0.902675 1.84076,0.501075 4.03813,1.304288 5.08176,2.8027 1.46838,2.107663 0.43545,5.02775 -2.45961,5.627963 -2.75854,0.5732 -5.54855,-1.060563 -7.86651,-2.112175 0,1.5345 0.25706,4.987112 -0.61384,6.21475 -1.36876,1.927095 -5.79501,1.927095 -7.16379,0 -0.87057,-1.227638 -0.61383,-4.68025 -0.61383,-6.21475 -2.54874,1.159925 -5.85268,3.028387 -8.85774,1.922625 -2.51729,-0.925175 -2.68509,-4.120538 -1.16425,-5.812988 1.13805,-1.268237 3.06274,-1.9633 4.77762,-2.428125 0,0 0,-0.902675 0,-0.902675 -1.71488,-0.464825 -3.63957,-1.159875 -4.77762,-2.428075 -1.52084,-1.692453 -1.35304,-4.887861 1.16425,-5.813036 3.00506,-1.105772 6.309,0.762699 8.85774,1.92263 z m 37.7593,0 c 0,-1.53451 -0.25705,-4.98712 0.61385,-6.214696 1.36876,-1.927159 5.79501,-1.927159 7.16377,0 0.8706,1.227576 0.61383,4.680186 0.61383,6.214696 2.31803,-1.051615 5.10798,-2.68538 7.86651,-2.112186 2.8949,0.600224 3.92805,3.520309 2.45962,5.627955 -1.04362,1.498425 -3.241,2.30175 -5.08176,2.802712 0,0 0,0.902675 0,0.902675 1.84076,0.501075 4.03814,1.304288 5.08176,2.8027 1.46843,2.107663 0.43544,5.02775 -2.45962,5.627963 -2.75853,0.5732 -5.54848,-1.060563 -7.86651,-2.112175 0,1.5345 0.25707,4.987112 -0.61383,6.21475 -1.36876,1.927095 -5.79501,1.927095 -7.16377,0 -0.87058,-1.227638 -0.61385,-4.68025 -0.61385,-6.21475 -2.54874,1.159925 -5.85267,3.028387 -8.85768,1.922625 -2.51729,-0.925175 -2.68515,-4.120538 -1.16425,-5.812988 1.13799,-1.268237 3.06268,-1.9633 4.77756,-2.428125 0,0 0,-0.902675 0,-0.902675 -1.71488,-0.464825 -3.63957,-1.159875 -4.77756,-2.428075 -1.5209,-1.692453 -1.35304,-4.887861 1.16425,-5.813036 3.00501,-1.105772 6.30894,0.762699 8.85768,1.92263 z m 8.39097,158.414109 c 0,0 0,-93.42374 0,-93.42374 -0.0126,-5.96644 -1.62577,-11.72085 -8.91542,-14.00451 -2.14489,-0.67245 -6.07294,-0.8846 -8.39095,-0.88909 0,0 -22.55069,0 -22.55069,0 -1.56804,0 -3.75493,0.1401 -5.01884,-0.78529 -1.82502,-1.33596 -1.6677,-4.8111 0.41935,-5.90782 1.19044,-0.62734 3.22,-0.52827 4.5993,-0.52827 0,0 18.87963,0 18.87963,0 0,0 9.96426,0 9.96426,0 8.23362,0.0859 15.89041,4.98259 18.48636,11.73439 0.87578,2.27468 0.9125,3.52479 0.91771,5.86715 0,0 0,97.93698 0,97.93698 0,0 14.68424,0 14.68424,0 1.56803,0 3.75493,-0.14012 5.01881,0.78528 1.4894,1.0877 1.26913,3.10959 1.27439,4.63055 0,0 0,9.47775 0,9.47775 0,7.63188 -0.30414,13.11545 -8.39096,18.03485 -1.46843,0.89362 -3.026,1.69699 -4.7199,2.23405 -2.74808,0.86655 -4.47873,0.93877 -7.34211,0.94328 0,0 -132.682047,0 -132.682047,0 -1.379264,0 -3.408823,0.0992 -4.599294,-0.52824 -2.087251,-1.09676 -2.244581,-4.57192 -0.419526,-5.90784 1.263888,-0.92521 3.450782,-0.78528 5.018843,-0.78528 0,0 111.180244,0 111.180244,0 0,0 12.06195,0 12.06195,0 6.29849,0 12.45009,0.53252 17.28538,-3.62867 1.59431,-1.37198 2.62743,-2.6267 3.283,-4.49517 0.56616,-1.63376 0.90726,-4.15213 0.93346,-5.86719 0,0 0,-7.67242 0,-7.67242 0,0 -83.90956,0 -83.90956,0 0,2.41905 0.84431,8.96775 -1.69398,10.30365 -1.19044,0.62733 -3.22,0.52826 -4.59924,0.52826 0,0 -46.150296,0 -46.150296,0 0,0 -9.439828,0 -9.439828,0 -1.541835,-0.0149 -3.235761,0.01 -4.331832,-1.09671 -1.075094,-1.08769 -0.912515,-2.96972 -0.912515,-4.31917 0,0 0,-5.41583 0,-5.41583 0,0 -83.909591,0 -83.909591,0 0,5.28945 -0.933494,12.93488 3.2567409,17.15022 3.9385063,3.95811 8.31753752,4.50418 14.0496088,4.51325 0,0 51.9190603,0 51.9190603,0 1.56806,0 3.754955,-0.1401 5.018843,0.7853 1.825038,1.33588 1.667707,4.81104 -0.419525,5.90781 -1.19047,0.6273 -3.220036,0.52825 -4.599302,0.52825 0,0 -57.16340508,0 -57.16340508,0 -2.86341622,-0.005 -4.59404752,-0.0769 -7.34209252,-0.94328 -8.3437564,-2.64023 -13.0951394,-9.19795 -13.1108724,-16.65828 0,0 0,-13.53972 0,-13.53972 0.01053,-1.25917 -0.0944,-2.8523 0.912521,-3.8678 1.263888,-1.28179 3.613353,-1.09222 5.380698,-1.0967 0,0 72.372025,0 72.372025,0 0,0 16.257483,0 16.257483,0 1.463177,0.01 3.314432,-0.081 4.494408,0.78531 1.489396,1.0877 1.269134,3.10956 1.274375,4.63056 0,0 0,5.41584 0,5.41584 0,0 50.345736,0 50.345736,0 0,-2.41908 -0.8443,-8.96778 1.69398,-10.30366 1.19043,-0.62738 3.22,-0.52825 4.59923,-0.52825 0,0 65.02995,0 65.02995,0 z M 62.168095,141.27677 c 5.270573,-1.08317 7.216226,2.02648 11.013135,4.52229 0,0 5.59572,3.43906 5.59572,3.43906 1.882723,1.61123 2.171163,4.29208 0,5.81305 -3.393091,2.32429 -8.133989,-0.92068 -10.840072,-2.56803 -1.190463,-0.72209 -2.622175,-1.9001 -4.195477,-1.57964 -0.975453,0.19887 -3.246253,1.77825 -4.19548,2.35139 -2.517291,1.51196 -5.632433,3.1141 -8.390957,4.2695 -8.936371,3.7505 -16.892051,5.09545 -26.746185,5.08191 -1.379265,0 -3.408824,0.0992 -4.599291,-0.52828 -2.087252,-1.0967 -2.244583,-4.57191 -0.419527,-5.9078 1.279622,-0.93877 6.382369,-1.2005 8.165452,-1.23665 3.728731,-0.0769 7.446976,-0.75367 11.013132,-1.67891 4.898225,-1.2682 11.055089,-3.85427 15.208618,-6.40424 0,0 8.390956,-5.57385 8.390956,-5.57385 z m 39.857085,21.32953 c -3.775957,-0.005 -3.162371,-0.0149 -6.817682,-0.4515 -1.924675,-0.23036 -5.181415,-0.59576 -6.670812,-1.66991 -2.276048,-1.63377 -2.034813,-4.67119 0.435259,-6.12894 1.9509,-1.04255 4.137798,-0.38806 6.235533,0 0,0 9.964242,0.83946 9.964242,0.83946 1.48416,0.18498 3.28826,0.23036 4.33184,1.28628 1.24817,1.25918 0.91251,4.47708 0.91251,6.12443 0,0 64.5055,0 64.5055,0 0,0 13.63531,0 13.63531,0 1.46319,0.01 3.31448,-0.081 4.49445,0.7853 1.48938,1.08765 1.26912,3.10959 1.27437,4.63055 0,0 0,26.17672 0,26.17672 -0.0733,4.37332 -1.7621,4.50871 -6.29325,4.5132 0,0 -70.27427,0 -70.27427,0 -1.56808,0 -3.75498,0.14008 -5.01881,-0.78532 -1.82504,-1.3359 -1.66771,-4.8111 0.41933,-5.90781 1.19045,-0.62731 3.22001,-0.52825 4.59925,-0.52825 0,0 68.17655,0 68.17655,0 0,0 0,-21.66344 0,-21.66344 0,0 -75.5186,0 -75.5186,0 0,0 0,4.51318 0,4.51318 -0.0185,11.02134 -6.51348,23.81181 -14.836286,32.04391 -4.76711,4.71633 -8.632198,7.02706 -14.007655,10.86785 0,0 -11.013131,7.63635 -11.013131,7.63635 -2.150183,1.46228 -3.891309,2.85235 -6.817655,2.65378 -2.548754,-0.17159 -4.410498,-1.72853 -6.29322,-3.06895 0,0 -8.915398,-6.17415 -8.915398,-6.17415 0,0 -9.439827,-6.57573 -9.439827,-6.57573 -9.403075,-7.28431 -16.131572,-16.41459 -19.210008,-27.00262 -0.844336,-2.92004 -2.664126,-10.35783 -1.379265,-13.07029 1.36353,-2.87941 6.057223,-2.95164 7.840306,0 0.802385,1.33594 0.65554,3.40752 0.912515,4.94651 0.456258,2.74405 1.431705,6.42683 2.512044,9.02644 5.039816,12.17215 11.574278,17.3443 22.95976,25.18379 0,0 7.34209,5.14507 7.34209,5.14507 0.844338,0.5822 2.669374,1.93616 3.671045,2.12571 1.66246,0.31132 3.513716,-1.29527 4.719911,-2.12571 0,0 9.964267,-6.86012 9.964267,-6.86012 10.242216,-7.08124 17.961895,-15.03353 21.423166,-26.17667 1.893241,-6.11543 2.176441,-13.9639 2.176441,-20.3095 z m -18.879685,7.5551 c 6.015265,-1.23209 7.483683,3.05549 5.380696,5.98452 0,0 -14.820523,13.08835 -14.820523,13.08835 -1.709659,1.47135 -5.249594,4.85174 -7.342093,5.53325 -5.160441,1.68793 -10.362835,-4.52225 -13.63531,-7.3385 0,0 -3.55042,-3.15926 -3.55042,-3.15926 -1.630995,-1.71505 -2.548756,-4.39591 -0.482459,-6.1786 4.059123,-3.48875 9.308718,2.17536 11.899432,4.3733 1.017398,0.86201 2.580221,2.53193 4.195473,2.16635 1.211449,-0.27505 4.22695,-3.09605 5.244354,-3.97164 3.088919,-2.65826 9.675825,-8.95873 13.110874,-10.49777 z m 37.817035,7.22117 c 1.60997,-0.34757 3.57139,-0.56413 4.9611,0.45149 2.00335,1.46229 1.61529,5.18569 -0.88105,6.1019 -5.44362,2.00386 -8.71083,-4.02581 -4.08005,-6.55324 z m 16.78185,0 c 1.61004,-0.34757 3.57147,-0.56413 4.96117,0.45149 2.00336,1.46229 1.61531,5.18569 -0.88104,6.1019 -5.44364,2.00386 -8.71083,-4.02581 -4.08013,-6.55324 z m 16.78194,0 c 1.61004,-0.34757 3.57139,-0.56413 4.96116,0.45149 2.00337,1.46229 1.61529,5.18569 -0.88105,6.1019 -5.44362,2.00386 -8.71083,-4.02581 -4.08011,-6.55324 z m 16.78191,0 c 1.61004,-0.34757 3.5714,-0.56413 4.96118,0.45149 2.00335,1.46229 1.61524,5.18569 -0.88106,6.1019 -5.44362,2.00386 -8.71088,-4.02581 -4.08012,-6.55324 z m -54.54121,28.88463 c 2.6956,-0.58673 6.51873,-0.33368 9.38214,-0.33368 0,0 16.78192,0 16.78192,0 5.08177,0.0635 5.23909,1.51643 5.24435,5.41585 0,0 0,11.73439 0,11.73439 -0.0185,1.32689 0.0125,2.78464 -1.27437,3.72794 -1.2639,0.92516 -3.45079,0.78529 -5.01883,0.78529 0,0 -20.97743,0 -20.97743,0 -1.7673,-0.005 -4.11679,0.18497 -5.38069,-1.09672 -0.92299,-0.93422 -0.89153,-2.26111 -0.91253,-3.41651 0,0 0,-12.63701 0,-12.63701 0.0373,-2.13026 -0.0434,-2.98326 2.15544,-4.17928 z m 41.95481,0 c 2.6956,-0.58673 6.51873,-0.33368 9.38214,-0.33368 0,0 16.78193,0 16.78193,0 5.08176,0.0635 5.2391,1.51643 5.24435,5.41585 0,0 0,11.73439 0,11.73439 -0.0189,1.32689 0.0126,2.78464 -1.27444,3.72794 -1.26384,0.92516 -3.45073,0.78529 -5.01881,0.78529 0,0 -20.97739,0 -20.97739,0 -1.76736,-0.005 -4.11685,0.18497 -5.38069,-1.09672 -0.92305,-0.93422 -0.89159,-2.26111 -0.91252,-3.41651 0,0 0,-12.63701 0,-12.63701 0.0373,-2.13026 -0.0434,-2.98326 2.15543,-4.17928 z m -18.93735,6.8872 c 0,0 -16.78193,0 -16.78193,0 0,0 0,7.22112 0,7.22112 0,0 16.78193,0 16.78193,0 0,0 0,-7.22112 0,-7.22112 z m 41.95482,0 c 0,0 -16.78193,0 -16.78193,0 0,0 0,7.22112 0,7.22112 0,0 16.78193,0 16.78193,0 0,0 0,-7.22112 0,-7.22112 z M -0.70641108,253.20472 c 1.610015,-0.34756 3.57140128,-0.56413 4.96115378,0.45149 2.0033462,1.46228 1.61526,5.18569 -0.88105,6.1019 -5.443635,2.00388 -8.7108625,-4.0258 -4.08010378,-6.55324 z m 16.78192108,0 c 1.610013,-0.34756 3.5714,-0.56413 4.961153,0.45149 2.003346,1.46228 1.615258,5.18569 -0.88105,6.1019 -5.443637,2.00383 -8.710863,-4.02585 -4.080103,-6.55324 z m 176.21017,0 c 1.60998,-0.34756 3.57139,-0.56413 4.9611,0.45149 2.00337,1.46228 1.61529,5.18569 -0.88105,6.1019 -5.44362,2.00388 -8.71082,-4.0258 -4.08005,-6.55324 z m 16.78187,0 c 1.61002,-0.34756 3.57145,-0.56413 4.96115,0.45149 2.00336,1.46228 1.6153,5.18569 -0.88104,6.1019 -5.44363,2.00388 -8.71083,-4.0258 -4.08011,-6.55324 z"
       style="fill:#000000" />
  </g>
</svg>
