<?xml version="1.0" encoding="UTF-8" standalone="no"?>
<!-- Created with Inkscape (http://www.inkscape.org/) -->

<svg
   width="210mm"
   height="297mm"
   viewBox="0 0 210 297"
   version="1.1"
   id="svg5"
   inkscape:version="1.1.2 (0a00cf5339, 2022-02-04)"
   sodipodi:docname="drawing.svg"
   xmlns:inkscape="http://www.inkscape.org/namespaces/inkscape"
   xmlns:sodipodi="http://sodipodi.sourceforge.net/DTD/sodipodi-0.dtd"
   xmlns="http://www.w3.org/2000/svg"
   xmlns:svg="http://www.w3.org/2000/svg">
  <sodipodi:namedview
     id="namedview7"
     pagecolor="#ffffff"
     bordercolor="#666666"
     borderopacity="1.0"
     inkscape:pageshadow="2"
     inkscape:pageopacity="0.0"
     inkscape:pagecheckerboard="0"
     inkscape:document-units="mm"
     showgrid="false"
     inkscape:zoom="3.24539"
     inkscape:cx="388.39708"
     inkscape:cy="561.71986"
     inkscape:window-width="1920"
     inkscape:window-height="1007"
     inkscape:window-x="0"
     inkscape:window-y="0"
     inkscape:window-maximized="1"
     inkscape:current-layer="layer1" />
  <defs
     id="defs2" />
  <g
     inkscape:label="Layer 1"
     inkscape:groupmode="layer"
     id="layer1">
    <path
       id="Selection"
       fill="none"
       stroke="#000000"
       stroke-width="1"
       d="m 101.67979,135.29268 c -0.23538,-0.28702 -0.89832,-1.18703 -1.19296,-1.30387 -0.15325,-0.061 -0.41656,-0.0508 -0.585048,-0.0508 0,0 -5.588012,0 -5.588012,0 -1.382609,-0.002 -2.114131,-0.73406 -2.116671,-2.11667 0,0 0,-6.60402 0,-6.60402 0.0025,-1.38261 0.734062,-2.11413 2.116671,-2.11667 0,0 15.5787,0 15.5787,0 0,0 9.31335,0 9.31335,0 1.38261,0.003 2.11413,0.73406 2.11667,2.11667 0,0 0,6.60402 0,6.60402 -0.002,1.38261 -0.73406,2.11413 -2.11667,2.11667 0,0 -11.43002,0 -11.43002,0 0,0 0,6.60401 0,6.60401 -0.008,0.61638 -0.3319,1.06003 -1.00838,0.78402 -0.31581,-0.1287 -0.76455,-0.75947 -0.99061,-1.03802 0,0 -2.01337,-2.45534 -2.01337,-2.45534 -0.23453,-0.28871 -0.7493,-1.01092 -1.07104,-1.13453 -0.15663,-0.061 -0.41825,-0.0508 -0.58928,-0.0508 0,0 -13.885362,0 -13.885362,0 -0.374227,8.4e-4 -1.008382,0.0406 -1.354669,0.16679 -1.176869,0.42841 -1.437643,1.50792 -1.439337,2.62721 0,0 0,15.15537 0,15.15537 0,0.22267 0.01863,0.55033 -0.09906,0.74252 -0.20574,0.33698 -0.857675,0.36238 -1.108289,0.0677 -0.173567,-0.20404 -0.14732,-0.5571 -0.14732,-0.81026 0,0 0,-16.00203 0,-16.00203 0.0034,-1.91093 1.39023,-3.29862 3.302007,-3.30201 0,0 14.3087,0 14.3087,0 z m 4.74134,3.38667 c 0,0 0,-5.08001 0,-5.08001 0.005,-0.90424 0.24723,-1.01431 1.10067,-1.016 0,0 9.48268,0 9.48268,0 0,0 1.60867,0 1.60867,0 0.37169,-8.5e-4 0.85683,0.0169 1.12607,-0.28956 0.243,-0.27517 0.22776,-0.72052 0.2286,-1.06511 0,0 0,-4.57201 0,-4.57201 0,-0.46567 0.0745,-1.47659 -0.17695,-1.84404 -0.25739,-0.37677 -0.77386,-0.35645 -1.17772,-0.3573 0,0 -19.219369,0 -19.219369,0 0,0 -3.810008,0 -3.810008,0 -0.443654,0 -1.317416,-0.0677 -1.67471,0.17696 -0.376768,0.25738 -0.356448,0.77385 -0.357294,1.17771 0,0 0,4.57201 0,4.57201 0,0.46567 -0.07451,1.47659 0.176954,1.84404 0.257387,0.37677 0.773854,0.35645 1.177715,0.3573 0,0 5.672682,0 5.672682,0 0.20066,0 0.48937,-0.011 0.67394,0.0626 0.36323,0.14478 1.132,1.19549 1.42156,1.54601 0,0 2.35628,2.87868 2.35628,2.87868 0.37253,0.45466 0.96774,1.25899 1.39023,1.60867 z m -9.482688,-11.43002 c 0,-0.28787 -0.04149,-0.93557 0.09906,-1.16586 0.22098,-0.36153 0.935568,-0.36153 1.156549,0 0.140547,0.23029 0.09906,0.87799 0.09906,1.16586 0.374227,-0.19728 0.824655,-0.50377 1.270002,-0.39624 0.467357,0.1126 0.634157,0.6604 0.397088,1.05579 -0.168487,0.2811 -0.523241,0.4318 -0.820422,0.52578 0,0 0,0.16934 0,0.16934 0.276861,0.0872 0.587588,0.21759 0.771315,0.45551 0.245536,0.3175 0.218436,0.91694 -0.18796,1.0905 -0.485141,0.20744 -1.018542,-0.14308 -1.430023,-0.36068 0,0.28787 0.04149,0.93557 -0.09906,1.16587 -0.220981,0.36152 -0.935569,0.36152 -1.156549,0 -0.140547,-0.2303 -0.09906,-0.878 -0.09906,-1.16587 -0.41148,0.2176 -0.944882,0.56812 -1.430023,0.36068 -0.4064,-0.17356 -0.433494,-0.773 -0.18796,-1.0905 0.183727,-0.23792 0.494454,-0.36831 0.771315,-0.45551 0,0 0,-0.16934 0,-0.16934 -0.325967,-0.10414 -0.677335,-0.27686 -0.844975,-0.59605 -0.2032,-0.38947 -0.01355,-0.88054 0.421641,-0.98552 0.445347,-0.10753 0.895775,0.19896 1.270002,0.39624 z m 6.096018,0 c 0,-0.28787 -0.0415,-0.93557 0.0991,-1.16586 0.22182,-0.36322 0.93472,-0.36322 1.15654,0 0.14055,0.23029 0.0991,0.87799 0.0991,1.16586 0.37423,-0.19728 0.82466,-0.50377 1.27001,-0.39624 0.46736,0.1126 0.63415,0.6604 0.39708,1.05579 -0.16848,0.2811 -0.52324,0.4318 -0.82042,0.52578 0,0 0,0.16934 0,0.16934 0.29718,0.094 0.65194,0.24468 0.82042,0.52578 0.23707,0.39539 0.0703,0.94319 -0.39708,1.05579 -0.44535,0.10753 -0.89578,-0.19896 -1.27001,-0.39624 0,0.28787 0.0415,0.93557 -0.0991,1.16587 -0.22098,0.36152 -0.93556,0.36152 -1.15654,0 -0.14055,-0.2303 -0.0991,-0.878 -0.0991,-1.16587 -0.41149,0.2176 -0.94489,0.56812 -1.43003,0.36068 -0.4064,-0.17356 -0.43349,-0.773 -0.18796,-1.0905 0.18373,-0.23792 0.49446,-0.36831 0.77132,-0.45551 0,0 0,-0.16934 0,-0.16934 -0.32597,-0.10414 -0.67734,-0.27686 -0.84498,-0.59605 -0.2032,-0.38947 -0.0135,-0.88054 0.42164,-0.98552 0.44535,-0.10753 0.89578,0.19896 1.27001,0.39624 z m 6.09601,0 c 0,-0.28787 -0.0415,-0.93557 0.0991,-1.16586 0.22182,-0.36322 0.93472,-0.36322 1.15655,0 0.14054,0.23029 0.0991,0.87799 0.0991,1.16586 0.37422,-0.19728 0.82465,-0.50377 1.27,-0.39624 0.46736,0.1126 0.63415,0.6604 0.39709,1.05579 -0.16849,0.2811 -0.52324,0.4318 -0.82042,0.52578 0,0 0,0.16934 0,0.16934 0.29718,0.094 0.65193,0.24468 0.82042,0.52578 0.23706,0.39539 0.0703,0.94319 -0.39709,1.05579 -0.44535,0.10753 -0.89578,-0.19896 -1.27,-0.39624 0,0.28787 0.0415,0.93557 -0.0991,1.16587 -0.22098,0.36152 -0.93557,0.36152 -1.15655,0 -0.14055,-0.2303 -0.0991,-0.878 -0.0991,-1.16587 -0.41148,0.2176 -0.94488,0.56812 -1.43003,0.36068 -0.4064,-0.17356 -0.43349,-0.773 -0.18796,-1.0905 0.18373,-0.23792 0.49446,-0.36831 0.77132,-0.45551 0,0 0,-0.16934 0,-0.16934 -0.27686,-0.0872 -0.58759,-0.21759 -0.77132,-0.4555 -0.24553,-0.3175 -0.21844,-0.91695 0.18796,-1.09051 0.48515,-0.20744 1.01855,0.14308 1.43003,0.36068 z m 6.09601,0 c 0,-0.28787 -0.0415,-0.93557 0.0991,-1.16586 0.22098,-0.36153 0.93557,-0.36153 1.15655,0 0.14055,0.23029 0.0991,0.87799 0.0991,1.16586 0.37423,-0.19728 0.82465,-0.50377 1.27,-0.39624 0.46736,0.1126 0.63416,0.6604 0.39709,1.05579 -0.16849,0.2811 -0.52324,0.4318 -0.82042,0.52578 0,0 0,0.16934 0,0.16934 0.29718,0.094 0.65193,0.24468 0.82042,0.52578 0.23707,0.39539 0.0703,0.94319 -0.39709,1.05579 -0.44535,0.10753 -0.89577,-0.19896 -1.27,-0.39624 0,0.28787 0.0415,0.93557 -0.0991,1.16587 -0.22098,0.36152 -0.93557,0.36152 -1.15655,0 -0.14055,-0.2303 -0.0991,-0.878 -0.0991,-1.16587 -0.41148,0.2176 -0.94488,0.56812 -1.43002,0.36068 -0.4064,-0.17356 -0.4335,-0.773 -0.18796,-1.0905 0.18372,-0.23792 0.49445,-0.36831 0.77131,-0.45551 0,0 0,-0.16934 0,-0.16934 -0.27686,-0.0872 -0.58759,-0.21759 -0.77131,-0.4555 -0.24554,-0.3175 -0.21844,-0.91695 0.18796,-1.09051 0.48514,-0.20744 1.01854,0.14308 1.43002,0.36068 z m 1.35467,29.71806 c 0,0 0,-17.52604 0,-17.52604 -0.002,-1.11929 -0.26247,-2.1988 -1.43934,-2.62721 -0.34628,-0.12615 -0.98044,-0.16595 -1.35467,-0.16679 0,0 -3.64067,0 -3.64067,0 -0.25315,0 -0.60621,0.0263 -0.81026,-0.14732 -0.29464,-0.25062 -0.26924,-0.90255 0.0677,-1.10829 0.19219,-0.11769 0.51985,-0.0991 0.74253,-0.0991 0,0 3.048,0 3.048,0 0,0 1.60867,0 1.60867,0 1.32927,0.0161 2.56541,0.93472 2.98451,2.20134 0.14139,0.42672 0.14732,0.66124 0.14816,1.10066 0,0 0,18.37271 0,18.37271 0,0 2.37068,0 2.37068,0 0.25315,0 0.60621,-0.0263 0.81026,0.14732 0.24045,0.20405 0.20489,0.58335 0.20574,0.86868 0,0 0,1.778 0,1.778 0,1.43172 -0.0491,2.46042 -1.35467,3.38329 -0.23707,0.16764 -0.48853,0.31835 -0.762,0.4191 -0.44366,0.16256 -0.72306,0.17611 -1.18534,0.17696 0,0 -21.420709,0 -21.420709,0 -0.222674,0 -0.550334,0.0186 -0.742528,-0.0991 -0.336974,-0.20575 -0.362374,-0.85768 -0.06773,-1.10829 0.204047,-0.17357 0.557108,-0.14732 0.810262,-0.14732 0,0 17.949375,0 17.949375,0 0,0 1.94733,0 1.94733,0 1.01685,0 2.00999,0.0999 2.79062,-0.68073 0.25739,-0.25738 0.42418,-0.49276 0.53002,-0.84328 0.0914,-0.30649 0.14647,-0.77893 0.1507,-1.10067 0,0 0,-1.43933 0,-1.43933 0,0 -13.54669,0 -13.54669,0 0,0.45381 0.13631,1.68233 -0.27348,1.93294 -0.19219,0.11769 -0.51985,0.0991 -0.74252,0.0991 0,0 -7.450686,0 -7.450686,0 0,0 -1.524003,0 -1.524003,0 -0.24892,-0.003 -0.522394,0.002 -0.699348,-0.20574 -0.173567,-0.20405 -0.14732,-0.55711 -0.14732,-0.81026 0,0 0,-1.016 0,-1.016 0,0 -13.546694,0 -13.546694,0 0,0.99229 -0.150707,2.42655 0.525781,3.21734 0.635848,0.74253 1.342816,0.84497 2.268224,0.84667 0,0 8.382017,0 8.382017,0 0.253154,0 0.606215,-0.0263 0.810262,0.14732 0.294641,0.25061 0.269241,0.90254 -0.06773,1.10829 -0.192194,0.11768 -0.519855,0.0991 -0.742529,0.0991 0,0 -9.228685,0 -9.228685,0 -0.462281,-8.5e-4 -0.741681,-0.0144 -1.185336,-0.17696 -1.347049,-0.4953 -2.114131,-1.72551 -2.116671,-3.12505 0,0 0,-2.54001 0,-2.54001 0.0017,-0.23622 -0.01524,-0.53509 0.147321,-0.72559 0.204047,-0.24046 0.583354,-0.2049 0.868681,-0.20574 0,0 11.684024,0 11.684024,0 0,0 2.624672,0 2.624672,0 0.236221,0.002 0.535095,-0.0152 0.725595,0.14732 0.240454,0.20405 0.204894,0.58335 0.20574,0.86868 0,0 0,1.016 0,1.016 0,0 8.128015,0 8.128015,0 0,-0.45381 -0.13631,-1.68233 0.27348,-1.93294 0.19219,-0.11769 0.51985,-0.0991 0.74252,-0.0991 0,0 10.49869,0 10.49869,0 z M 93.890436,138.742 c 0.850902,-0.2032 1.165016,0.38016 1.778004,0.84837 0,0 0.903395,0.64516 0.903395,0.64516 0.303954,0.30226 0.350521,0.80518 0,1.09051 -0.547794,0.43603 -1.313183,-0.17272 -1.750064,-0.48176 -0.192193,-0.13546 -0.423334,-0.35645 -0.677334,-0.29633 -0.157481,0.0373 -0.524088,0.33359 -0.677335,0.44111 -0.406401,0.28364 -0.909322,0.5842 -1.354669,0.80095 -1.442723,0.70358 -2.727119,0.95589 -4.318009,0.95335 -0.222674,0 -0.550334,0.0186 -0.742528,-0.0991 -0.336974,-0.20574 -0.362374,-0.85768 -0.06773,-1.10829 0.206587,-0.17611 1.030395,-0.22521 1.318263,-0.23199 0.601981,-0.0144 1.202269,-0.14139 1.778003,-0.31496 0.790789,-0.23791 1.784777,-0.72305 2.455339,-1.20142 0,0 1.354669,-1.04564 1.354669,-1.04564 z m 6.434684,4.00136 c -0.609605,-8.5e-4 -0.510545,-0.003 -1.100673,-0.0847 -0.310727,-0.0432 -0.836508,-0.11176 -1.076962,-0.31327 -0.367454,-0.30649 -0.328508,-0.8763 0.07027,-1.14977 0.314961,-0.19558 0.668022,-0.0728 1.006689,0 0,0 1.608666,0.15748 1.608666,0.15748 0.23961,0.0347 0.53087,0.0432 0.69935,0.2413 0.20151,0.23622 0.14732,0.83989 0.14732,1.14893 0,0 10.41402,0 10.41402,0 0,0 2.20134,0 2.20134,0 0.23622,0.002 0.5351,-0.0152 0.7256,0.14732 0.24045,0.20404 0.20489,0.58335 0.20574,0.86868 0,0 0,4.91068 0,4.91068 -0.0118,0.82042 -0.28448,0.84582 -1.01601,0.84666 0,0 -11.34535,0 -11.34535,0 -0.25316,0 -0.60622,0.0263 -0.81026,-0.14732 -0.29464,-0.25061 -0.26924,-0.90255 0.0677,-1.10829 0.19219,-0.11768 0.51985,-0.0991 0.74252,-0.0991 0,0 11.00669,0 11.00669,0 0,0 0,-4.064 0,-4.064 0,0 -12.19202,0 -12.19202,0 0,0 0,0.84666 0,0.84666 -0.003,2.06757 -1.05156,4.46703 -2.395227,6.01135 -0.769621,0.88477 -1.393616,1.31826 -2.261451,2.03878 0,0 -1.778003,1.43256 -1.778003,1.43256 -0.347134,0.27432 -0.628228,0.53509 -1.100669,0.49784 -0.411481,-0.0322 -0.712048,-0.32427 -1.016002,-0.57573 0,0 -1.439337,-1.15825 -1.439337,-1.15825 0,0 -1.524003,-1.23359 -1.524003,-1.23359 -1.518069,-1.36652 -2.604344,-3.07933 -3.101339,-5.06562 -0.136313,-0.54779 -0.430107,-1.9431 -0.222674,-2.45195 0.220134,-0.54017 0.977902,-0.55372 1.26577,0 0.12954,0.25062 0.105833,0.63924 0.14732,0.92795 0.07366,0.51478 0.23114,1.20566 0.405554,1.69334 0.813648,2.28346 1.868597,3.25374 3.706714,4.72441 0,0 1.185336,0.9652 1.185336,0.9652 0.136313,0.10922 0.430954,0.36322 0.592668,0.39878 0.268394,0.0584 0.567268,-0.24299 0.762001,-0.39878 0,0 1.60867,-1.28694 1.60867,-1.28694 1.653544,-1.32842 2.899839,-2.82025 3.458641,-4.91067 0.305651,-1.14724 0.351371,-2.61959 0.351371,-3.81001 z m -3.04801,1.41732 c 0.971128,-0.23114 1.208195,0.5732 0.868681,1.12268 0,0 -2.392684,2.45534 -2.392684,2.45534 -0.276014,0.27602 -0.847515,0.91017 -1.185336,1.03802 -0.833122,0.31665 -1.673017,-0.84836 -2.201338,-1.37668 0,0 -0.573194,-0.59267 -0.573194,-0.59267 -0.263314,-0.32174 -0.411481,-0.82466 -0.07789,-1.15909 0.655321,-0.65448 1.502836,0.40809 1.921091,0.82042 0.164253,0.16171 0.416561,0.47498 0.677334,0.4064 0.195581,-0.0516 0.682415,-0.58081 0.846669,-0.74507 0.498687,-0.49868 1.562103,-1.68063 2.116671,-1.96935 z m 6.10533,1.35467 c 0.25992,-0.0652 0.57658,-0.10583 0.80094,0.0847 0.32343,0.27432 0.26078,0.97282 -0.14224,1.1447 -0.87884,0.37592 -1.40631,-0.75523 -0.6587,-1.22937 z m 2.70933,0 c 0.25993,-0.0652 0.57659,-0.10583 0.80095,0.0847 0.32343,0.27432 0.26078,0.97282 -0.14224,1.1447 -0.87884,0.37592 -1.40631,-0.75523 -0.65871,-1.22937 z m 2.70934,0 c 0.25993,-0.0652 0.57658,-0.10583 0.80095,0.0847 0.32343,0.27432 0.26078,0.97282 -0.14224,1.1447 -0.87884,0.37592 -1.40631,-0.75523 -0.65871,-1.22937 z m 2.70934,0 c 0.25993,-0.0652 0.57658,-0.10583 0.80095,0.0847 0.32343,0.27432 0.26077,0.97282 -0.14224,1.1447 -0.87884,0.37592 -1.40632,-0.75523 -0.65871,-1.22937 z m -8.80535,5.41868 c 0.43519,-0.11007 1.05241,-0.0626 1.51469,-0.0626 0,0 2.70934,0 2.70934,0 0.82042,0.0119 0.84582,0.28448 0.84667,1.016 0,0 0,2.20134 0,2.20134 -0.003,0.24892 0.002,0.52239 -0.20574,0.69935 -0.20405,0.17356 -0.55711,0.14732 -0.81026,0.14732 0,0 -3.38668,0 -3.38668,0 -0.28532,-8.5e-4 -0.66463,0.0347 -0.86868,-0.20574 -0.14901,-0.17526 -0.14393,-0.42418 -0.14732,-0.64093 0,0 0,-2.37067 0,-2.37067 0.006,-0.39963 -0.007,-0.55965 0.34798,-0.78402 z m 6.77335,0 c 0.43519,-0.11007 1.05241,-0.0626 1.51469,-0.0626 0,0 2.70934,0 2.70934,0 0.82042,0.0119 0.84582,0.28448 0.84667,1.016 0,0 0,2.20134 0,2.20134 -0.003,0.24892 0.002,0.52239 -0.20575,0.69935 -0.20404,0.17356 -0.5571,0.14732 -0.81026,0.14732 0,0 -3.38667,0 -3.38667,0 -0.28533,-8.5e-4 -0.66464,0.0347 -0.86868,-0.20574 -0.14902,-0.17526 -0.14394,-0.42418 -0.14732,-0.64093 0,0 0,-2.37067 0,-2.37067 0.006,-0.39963 -0.007,-0.55965 0.34798,-0.78402 z m -3.05732,1.29202 c 0,0 -2.70934,0 -2.70934,0 0,0 0,1.35466 0,1.35466 0,0 2.70934,0 2.70934,0 0,0 0,-1.35466 0,-1.35466 z m 6.77335,0 c 0,0 -2.70934,0 -2.70934,0 0,0 0,1.35466 0,1.35466 0,0 2.70934,0 2.70934,0 0,0 0,-1.35466 0,-1.35466 z m -29.454751,7.51333 c 0.259927,-0.0652 0.576581,-0.10583 0.800948,0.0847 0.323428,0.27432 0.260774,0.97282 -0.14224,1.1447 -0.878842,0.37592 -1.406316,-0.75523 -0.658708,-1.22937 z m 2.709339,0 c 0.259927,-0.0652 0.576581,-0.10583 0.800948,0.0847 0.323428,0.27432 0.260774,0.97282 -0.14224,1.1447 -0.878842,0.37591 -1.406316,-0.75524 -0.658708,-1.22937 z m 28.448062,0 c 0.25992,-0.0652 0.57658,-0.10583 0.80094,0.0847 0.32343,0.27432 0.26078,0.97282 -0.14224,1.1447 -0.87884,0.37592 -1.40631,-0.75523 -0.6587,-1.22937 z m 2.70933,0 c 0.25993,-0.0652 0.57659,-0.10583 0.80095,0.0847 0.32343,0.27432 0.26078,0.97282 -0.14224,1.1447 -0.87884,0.37592 -1.40631,-0.75523 -0.65871,-1.22937 z"
       style="fill:#000000" />
  </g>
</svg>
