<?xml version="1.0" encoding="UTF-8" standalone="no"?>
<!DOCTYPE svg PUBLIC "-//W3C//DTD SVG 20010904//EN"
              "http://www.w3.org/TR/2001/REC-SVG-20010904/DTD/svg10.dtd">

<svg xmlns="http://www.w3.org/2000/svg"
     width="1.70667in" height="1.70667in"
     viewBox="0 0 512 512">
  <path id="Selection"
        fill="none" stroke="black" stroke-width="1"
        d="M 264.00,160.00
           C 261.22,156.61 253.39,145.98 249.91,144.60
             248.10,143.88 244.99,144.00 243.00,144.00
             243.00,144.00 177.00,144.00 177.00,144.00
             160.67,143.97 152.03,135.33 152.00,119.00
             152.00,119.00 152.00,41.00 152.00,41.00
             152.03,24.67 160.67,16.03 177.00,16.00
             177.00,16.00 361.00,16.00 361.00,16.00
             361.00,16.00 471.00,16.00 471.00,16.00
             487.33,16.03 495.97,24.67 496.00,41.00
             496.00,41.00 496.00,119.00 496.00,119.00
             495.97,135.33 487.33,143.97 471.00,144.00
             471.00,144.00 336.00,144.00 336.00,144.00
             336.00,144.00 336.00,222.00 336.00,222.00
             335.90,229.28 332.08,234.52 324.09,231.26
             320.36,229.74 315.06,222.29 312.39,219.00
             312.39,219.00 288.61,190.00 288.61,190.00
             285.84,186.59 279.76,178.06 275.96,176.60
             274.11,175.88 271.02,176.00 269.00,176.00
             269.00,176.00 105.00,176.00 105.00,176.00
             100.58,176.01 93.09,176.48 89.00,177.97
             75.10,183.03 72.02,195.78 72.00,209.00
             72.00,209.00 72.00,388.00 72.00,388.00
             72.00,390.63 72.22,394.50 70.83,396.77
             68.40,400.75 60.70,401.05 57.74,397.57
             55.69,395.16 56.00,390.99 56.00,388.00
             56.00,388.00 56.00,199.00 56.00,199.00
             56.04,176.43 72.42,160.04 95.00,160.00
             95.00,160.00 264.00,160.00 264.00,160.00 Z
           M 320.00,200.00
           C 320.00,200.00 320.00,140.00 320.00,140.00
             320.06,129.32 322.92,128.02 333.00,128.00
             333.00,128.00 445.00,128.00 445.00,128.00
             445.00,128.00 464.00,128.00 464.00,128.00
             468.39,127.99 474.12,128.20 477.30,124.58
             480.17,121.33 479.99,116.07 480.00,112.00
             480.00,112.00 480.00,58.00 480.00,58.00
             480.00,52.50 480.88,40.56 477.91,36.22
             474.87,31.77 468.77,32.01 464.00,32.00
             464.00,32.00 237.00,32.00 237.00,32.00
             237.00,32.00 192.00,32.00 192.00,32.00
             186.76,32.00 176.44,31.20 172.22,34.09
             167.77,37.13 168.01,43.23 168.00,48.00
             168.00,48.00 168.00,102.00 168.00,102.00
             168.00,107.50 167.12,119.44 170.09,123.78
             173.13,128.23 179.23,127.99 184.00,128.00
             184.00,128.00 251.00,128.00 251.00,128.00
             253.37,128.00 256.78,127.87 258.96,128.74
             263.25,130.45 272.33,142.86 275.75,147.00
             275.75,147.00 303.58,181.00 303.58,181.00
             307.98,186.37 315.01,195.87 320.00,200.00 Z
           M 208.00,65.00
           C 208.00,61.60 207.51,53.95 209.17,51.23
             211.78,46.96 220.22,46.96 222.83,51.23
             224.49,53.95 224.00,61.60 224.00,65.00
             228.42,62.67 233.74,59.05 239.00,60.32
             244.52,61.65 246.49,68.12 243.69,72.79
             241.70,76.11 237.51,77.89 234.00,79.00
             234.00,79.00 234.00,81.00 234.00,81.00
             237.27,82.03 240.94,83.57 243.11,86.38
             246.01,90.13 245.69,97.21 240.89,99.26
             235.16,101.71 228.86,97.57 224.00,95.00
             224.00,98.40 224.49,106.05 222.83,108.77
             220.22,113.04 211.78,113.04 209.17,108.77
             207.51,106.05 208.00,98.40 208.00,95.00
             203.14,97.57 196.84,101.71 191.11,99.26
             186.31,97.21 185.99,90.13 188.89,86.38
             191.06,83.57 194.73,82.03 198.00,81.00
             198.00,81.00 198.00,79.00 198.00,79.00
             194.15,77.77 190.00,75.73 188.02,71.96
             185.62,67.36 187.86,61.56 193.00,60.32
             198.26,59.05 203.58,62.67 208.00,65.00 Z
           M 280.00,65.00
           C 280.00,61.60 279.51,53.95 281.17,51.23
             283.79,46.94 292.21,46.94 294.83,51.23
             296.49,53.95 296.00,61.60 296.00,65.00
             300.42,62.67 305.74,59.05 311.00,60.32
             316.52,61.65 318.49,68.12 315.69,72.79
             313.70,76.11 309.51,77.89 306.00,79.00
             306.00,79.00 306.00,81.00 306.00,81.00
             309.51,82.11 313.70,83.89 315.69,87.21
             318.49,91.88 316.52,98.35 311.00,99.68
             305.74,100.95 300.42,97.33 296.00,95.00
             296.00,98.40 296.49,106.05 294.83,108.77
             292.22,113.04 283.78,113.04 281.17,108.77
             279.51,106.05 280.00,98.40 280.00,95.00
             275.14,97.57 268.84,101.71 263.11,99.26
             258.31,97.21 257.99,90.13 260.89,86.38
             263.06,83.57 266.73,82.03 270.00,81.00
             270.00,81.00 270.00,79.00 270.00,79.00
             266.15,77.77 262.00,75.73 260.02,71.96
             257.62,67.36 259.86,61.56 265.00,60.32
             270.26,59.05 275.58,62.67 280.00,65.00 Z
           M 352.00,65.00
           C 352.00,61.60 351.51,53.95 353.17,51.23
             355.79,46.94 364.21,46.94 366.83,51.23
             368.49,53.95 368.00,61.60 368.00,65.00
             372.42,62.67 377.74,59.05 383.00,60.32
             388.52,61.65 390.49,68.12 387.69,72.79
             385.70,76.11 381.51,77.89 378.00,79.00
             378.00,79.00 378.00,81.00 378.00,81.00
             381.51,82.11 385.70,83.89 387.69,87.21
             390.49,91.88 388.52,98.35 383.00,99.68
             377.74,100.95 372.42,97.33 368.00,95.00
             368.00,98.40 368.49,106.05 366.83,108.77
             364.22,113.04 355.78,113.04 353.17,108.77
             351.51,106.05 352.00,98.40 352.00,95.00
             347.14,97.57 340.84,101.71 335.11,99.26
             330.31,97.21 329.99,90.13 332.89,86.38
             335.06,83.57 338.73,82.03 342.00,81.00
             342.00,81.00 342.00,79.00 342.00,79.00
             338.73,77.97 335.06,76.43 332.89,73.62
             329.99,69.87 330.31,62.79 335.11,60.74
             340.84,58.29 347.14,62.43 352.00,65.00 Z
           M 424.00,65.00
           C 424.00,61.60 423.51,53.95 425.17,51.23
             427.78,46.96 436.22,46.96 438.83,51.23
             440.49,53.95 440.00,61.60 440.00,65.00
             444.42,62.67 449.74,59.05 455.00,60.32
             460.52,61.65 462.49,68.12 459.69,72.79
             457.70,76.11 453.51,77.89 450.00,79.00
             450.00,79.00 450.00,81.00 450.00,81.00
             453.51,82.11 457.70,83.89 459.69,87.21
             462.49,91.88 460.52,98.35 455.00,99.68
             449.74,100.95 444.42,97.33 440.00,95.00
             440.00,98.40 440.49,106.05 438.83,108.77
             436.22,113.04 427.78,113.04 425.17,108.77
             423.51,106.05 424.00,98.40 424.00,95.00
             419.14,97.57 412.84,101.71 407.11,99.26
             402.31,97.21 401.99,90.13 404.89,86.38
             407.06,83.57 410.73,82.03 414.00,81.00
             414.00,81.00 414.00,79.00 414.00,79.00
             410.73,77.97 407.06,76.43 404.89,73.62
             401.99,69.87 402.31,62.79 407.11,60.74
             412.84,58.29 419.14,62.43 424.00,65.00 Z
           M 440.00,416.00
           C 440.00,416.00 440.00,209.00 440.00,209.00
             439.98,195.78 436.90,183.03 423.00,177.97
             418.91,176.48 411.42,176.01 407.00,176.00
             407.00,176.00 364.00,176.00 364.00,176.00
             361.01,176.00 356.84,176.31 354.43,174.26
             350.95,171.30 351.25,163.60 355.23,161.17
             357.50,159.78 361.37,160.00 364.00,160.00
             364.00,160.00 400.00,160.00 400.00,160.00
             400.00,160.00 419.00,160.00 419.00,160.00
             434.70,160.19 449.30,171.04 454.25,186.00
             455.92,191.04 455.99,193.81 456.00,199.00
             456.00,199.00 456.00,416.00 456.00,416.00
             456.00,416.00 484.00,416.00 484.00,416.00
             486.99,416.00 491.16,415.69 493.57,417.74
             496.41,420.15 495.99,424.63 496.00,428.00
             496.00,428.00 496.00,449.00 496.00,449.00
             496.00,465.91 495.42,478.06 480.00,488.96
             477.20,490.94 474.23,492.72 471.00,493.91
             465.76,495.83 462.46,495.99 457.00,496.00
             457.00,496.00 204.00,496.00 204.00,496.00
             201.37,496.00 197.50,496.22 195.23,494.83
             191.25,492.40 190.95,484.70 194.43,481.74
             196.84,479.69 201.01,480.00 204.00,480.00
             204.00,480.00 416.00,480.00 416.00,480.00
             416.00,480.00 439.00,480.00 439.00,480.00
             451.01,480.00 462.74,481.18 471.96,471.96
             475.00,468.92 476.97,466.14 478.22,462.00
             479.30,458.38 479.95,452.80 480.00,449.00
             480.00,449.00 480.00,432.00 480.00,432.00
             480.00,432.00 320.00,432.00 320.00,432.00
             320.00,437.36 321.61,451.87 316.77,454.83
             314.50,456.22 310.63,456.00 308.00,456.00
             308.00,456.00 220.00,456.00 220.00,456.00
             220.00,456.00 202.00,456.00 202.00,456.00
             199.06,455.96 195.83,456.02 193.74,453.57
             191.69,451.16 192.00,446.99 192.00,444.00
             192.00,444.00 192.00,432.00 192.00,432.00
             192.00,432.00 32.00,432.00 32.00,432.00
             32.00,443.72 30.22,460.66 38.21,470.00
             45.72,478.77 54.07,479.98 65.00,480.00
             65.00,480.00 164.00,480.00 164.00,480.00
             166.99,480.00 171.16,479.69 173.57,481.74
             177.05,484.70 176.75,492.40 172.77,494.83
             170.50,496.22 166.63,496.00 164.00,496.00
             164.00,496.00 55.00,496.00 55.00,496.00
             49.54,495.99 46.24,495.83 41.00,493.91
             25.09,488.06 16.03,473.53 16.00,457.00
             16.00,457.00 16.00,427.00 16.00,427.00
             16.02,424.21 15.82,420.68 17.74,418.43
             20.15,415.59 24.63,416.01 28.00,416.00
             28.00,416.00 166.00,416.00 166.00,416.00
             166.00,416.00 197.00,416.00 197.00,416.00
             199.79,416.02 203.32,415.82 205.57,417.74
             208.41,420.15 207.99,424.63 208.00,428.00
             208.00,428.00 208.00,440.00 208.00,440.00
             208.00,440.00 304.00,440.00 304.00,440.00
             304.00,434.64 302.39,420.13 307.23,417.17
             309.50,415.78 313.37,416.00 316.00,416.00
             316.00,416.00 440.00,416.00 440.00,416.00 Z
           M 172.00,200.74
           C 182.05,198.34 185.76,205.23 193.00,210.76
             193.00,210.76 203.67,218.38 203.67,218.38
             207.26,221.95 207.81,227.89 203.67,231.26
             197.20,236.41 188.16,229.22 183.00,225.57
             180.73,223.97 178.00,221.36 175.00,222.07
             173.14,222.51 168.81,226.01 167.00,227.28
             162.20,230.63 156.26,234.18 151.00,236.74
             133.96,245.05 118.79,248.03 100.00,248.00
             97.37,248.00 93.50,248.22 91.23,246.83
             87.25,244.40 86.95,236.70 90.43,233.74
             92.87,231.66 102.60,231.08 106.00,231.00
             113.11,230.83 120.20,229.33 127.00,227.28
             136.34,224.47 148.08,218.74 156.00,213.09
             156.00,213.09 172.00,200.74 172.00,200.74 Z
           M 248.00,248.00
           C 240.80,247.99 241.97,247.96 235.00,247.00
             231.33,246.49 225.12,245.68 222.28,243.30
             217.94,239.68 218.40,232.95 223.11,229.72
             226.83,227.41 231.00,228.86 235.00,229.72
             235.00,229.72 254.00,231.58 254.00,231.58
             256.83,231.99 260.27,232.09 262.26,234.43
             264.64,237.22 264.00,244.35 264.00,248.00
             264.00,248.00 387.00,248.00 387.00,248.00
             387.00,248.00 413.00,248.00 413.00,248.00
             415.79,248.02 419.32,247.82 421.57,249.74
             424.41,252.15 423.99,256.63 424.00,260.00
             424.00,260.00 424.00,318.00 424.00,318.00
             423.86,327.69 420.64,327.99 412.00,328.00
             412.00,328.00 278.00,328.00 278.00,328.00
             275.01,328.00 270.84,328.31 268.43,326.26
             264.95,323.30 265.25,315.60 269.23,313.17
             271.50,311.78 275.37,312.00 278.00,312.00
             278.00,312.00 408.00,312.00 408.00,312.00
             408.00,312.00 408.00,264.00 408.00,264.00
             408.00,264.00 264.00,264.00 264.00,264.00
             264.00,264.00 264.00,274.00 264.00,274.00
             263.96,298.42 251.58,326.76 235.71,345.00
             226.62,355.45 219.25,360.57 209.00,369.08
             209.00,369.08 188.00,386.00 188.00,386.00
             183.90,389.24 180.58,392.32 175.00,391.88
             170.14,391.50 166.59,388.05 163.00,385.08
             163.00,385.08 146.00,371.40 146.00,371.40
             146.00,371.40 128.00,356.83 128.00,356.83
             110.07,340.69 97.24,320.46 91.37,297.00
             89.76,290.53 86.29,274.05 88.74,268.04
             91.34,261.66 100.29,261.50 103.69,268.04
             105.22,271.00 104.94,275.59 105.43,279.00
             106.30,285.08 108.16,293.24 110.22,299.00
             119.83,325.97 132.29,337.43 154.00,354.80
             154.00,354.80 168.00,366.20 168.00,366.20
             169.61,367.49 173.09,370.49 175.00,370.91
             178.17,371.60 181.70,368.04 184.00,366.20
             184.00,366.20 203.00,351.00 203.00,351.00
             222.53,335.31 237.25,317.69 243.85,293.00
             247.46,279.45 248.00,262.06 248.00,248.00 Z
           M 212.00,264.74
           C 223.47,262.01 226.27,271.51 222.26,278.00
             222.26,278.00 194.00,307.00 194.00,307.00
             190.74,310.26 183.99,317.75 180.00,319.26
             170.16,323.00 160.24,309.24 154.00,303.00
             154.00,303.00 147.23,296.00 147.23,296.00
             144.12,292.20 142.37,286.26 146.31,282.31
             154.05,274.58 164.06,287.13 169.00,292.00
             170.94,293.91 173.92,297.61 177.00,296.80
             179.31,296.19 185.06,289.94 187.00,288.00
             192.89,282.11 205.45,268.15 212.00,264.74 Z
           M 284.11,280.74
           C 287.18,279.97 290.92,279.49 293.57,281.74
             297.39,284.98 296.65,293.23 291.89,295.26
             281.51,299.70 275.28,286.34 284.11,280.74 Z
           M 316.11,280.74
           C 319.18,279.97 322.92,279.49 325.57,281.74
             329.39,284.98 328.65,293.23 323.89,295.26
             313.51,299.70 307.28,286.34 316.11,280.74 Z
           M 348.11,280.74
           C 351.18,279.97 354.92,279.49 357.57,281.74
             361.39,284.98 360.65,293.23 355.89,295.26
             345.51,299.70 339.28,286.34 348.11,280.74 Z
           M 380.11,280.74
           C 383.18,279.97 386.92,279.49 389.57,281.74
             393.39,284.98 392.65,293.23 387.89,295.26
             377.51,299.70 371.28,286.34 380.11,280.74 Z
           M 276.11,344.74
           C 281.25,343.44 288.54,344.00 294.00,344.00
             294.00,344.00 326.00,344.00 326.00,344.00
             335.69,344.14 335.99,347.36 336.00,356.00
             336.00,356.00 336.00,382.00 336.00,382.00
             335.96,384.94 336.02,388.17 333.57,390.26
             331.16,392.31 326.99,392.00 324.00,392.00
             324.00,392.00 284.00,392.00 284.00,392.00
             280.63,391.99 276.15,392.41 273.74,389.57
             271.98,387.50 272.04,384.56 272.00,382.00
             272.00,382.00 272.00,354.00 272.00,354.00
             272.07,349.28 271.92,347.39 276.11,344.74 Z
           M 356.11,344.74
           C 361.25,343.44 368.54,344.00 374.00,344.00
             374.00,344.00 406.00,344.00 406.00,344.00
             415.69,344.14 415.99,347.36 416.00,356.00
             416.00,356.00 416.00,382.00 416.00,382.00
             415.96,384.94 416.02,388.17 413.57,390.26
             411.16,392.31 406.99,392.00 404.00,392.00
             404.00,392.00 364.00,392.00 364.00,392.00
             360.63,391.99 356.15,392.41 353.74,389.57
             351.98,387.50 352.04,384.56 352.00,382.00
             352.00,382.00 352.00,354.00 352.00,354.00
             352.07,349.28 351.92,347.39 356.11,344.74 Z
           M 320.00,360.00
           C 320.00,360.00 288.00,360.00 288.00,360.00
             288.00,360.00 288.00,376.00 288.00,376.00
             288.00,376.00 320.00,376.00 320.00,376.00
             320.00,376.00 320.00,360.00 320.00,360.00 Z
           M 400.00,360.00
           C 400.00,360.00 368.00,360.00 368.00,360.00
             368.00,360.00 368.00,376.00 368.00,376.00
             368.00,376.00 400.00,376.00 400.00,376.00
             400.00,376.00 400.00,360.00 400.00,360.00 Z
           M 52.11,448.74
           C 55.18,447.97 58.92,447.49 61.57,449.74
             65.39,452.98 64.65,461.23 59.89,463.26
             49.51,467.70 43.28,454.34 52.11,448.74 Z
           M 84.11,448.74
           C 87.18,447.97 90.92,447.49 93.57,449.74
             97.39,452.98 96.65,461.23 91.89,463.26
             81.51,467.70 75.28,454.34 84.11,448.74 Z
           M 420.11,448.74
           C 423.18,447.97 426.92,447.49 429.57,449.74
             433.39,452.98 432.65,461.23 427.89,463.26
             417.51,467.70 411.28,454.34 420.11,448.74 Z
           M 452.11,448.74
           C 455.18,447.97 458.92,447.49 461.57,449.74
             465.39,452.98 464.65,461.23 459.89,463.26
             449.51,467.70 443.28,454.34 452.11,448.74 Z" />
</svg>
